<svg width="360" height="640" viewBox="0 0 360 640" fill="none" xmlns="http://www.w3.org/2000/svg">
<rect width="360" height="640" fill="#090909"/>
<rect width="360" height="22" fill="#090909"/>
<path d="M15.5127 10.2715C15.5127 12.2402 15.098 13.71 14.2686 14.6807C13.4391 15.6514 12.1836 16.1367 10.502 16.1367C9.90951 16.1367 9.46061 16.1048 9.15527 16.041V14.3457C9.53809 14.4414 9.93913 14.4893 10.3584 14.4893C11.0648 14.4893 11.6458 14.3867 12.1016 14.1816C12.5573 13.972 12.9059 13.6462 13.1475 13.2041C13.389 12.7575 13.528 12.1445 13.5645 11.3652H13.4824C13.2181 11.7936 12.9128 12.0944 12.5664 12.2676C12.2201 12.4408 11.7871 12.5273 11.2676 12.5273C10.3971 12.5273 9.71126 12.2493 9.20996 11.6934C8.70866 11.1328 8.45801 10.3558 8.45801 9.3623C8.45801 8.29134 8.76107 7.44596 9.36719 6.82617C9.97786 6.20182 10.8073 5.88965 11.8555 5.88965C12.5938 5.88965 13.2386 6.06283 13.79 6.40918C14.346 6.75553 14.7721 7.25911 15.0684 7.91992C15.3646 8.57617 15.5127 9.36003 15.5127 10.2715ZM11.8965 7.58496C11.459 7.58496 11.1172 7.73535 10.8711 8.03613C10.625 8.33691 10.502 8.76986 10.502 9.33496C10.502 9.81803 10.6136 10.2008 10.8369 10.4834C11.0602 10.766 11.3997 10.9072 11.8555 10.9072C12.2839 10.9072 12.6507 10.7682 12.9561 10.4902C13.2614 10.2077 13.4141 9.88411 13.4141 9.51953C13.4141 8.97721 13.2705 8.51921 12.9834 8.14551C12.7008 7.77181 12.3385 7.58496 11.8965 7.58496ZM17.8047 15.0225C17.8047 14.6396 17.9072 14.3503 18.1123 14.1543C18.3174 13.9583 18.6159 13.8604 19.0078 13.8604C19.3861 13.8604 19.6777 13.9606 19.8828 14.1611C20.0924 14.3617 20.1973 14.6488 20.1973 15.0225C20.1973 15.3825 20.0924 15.6673 19.8828 15.877C19.6732 16.082 19.3815 16.1846 19.0078 16.1846C18.625 16.1846 18.3288 16.0843 18.1191 15.8838C17.9095 15.6787 17.8047 15.3916 17.8047 15.0225ZM17.8047 9.37598C17.8047 8.99316 17.9072 8.70378 18.1123 8.50781C18.3174 8.31185 18.6159 8.21387 19.0078 8.21387C19.3861 8.21387 19.6777 8.31413 19.8828 8.51465C20.0924 8.71517 20.1973 9.00228 20.1973 9.37598C20.1973 9.74512 20.0902 10.0322 19.876 10.2373C19.6663 10.4378 19.377 10.5381 19.0078 10.5381C18.625 10.5381 18.3288 10.4378 18.1191 10.2373C17.9095 10.0368 17.8047 9.74967 17.8047 9.37598ZM29.7695 13.9287H28.5664V16H26.502V13.9287H22.2363V12.459L26.6182 6.00586H28.5664V12.2881H29.7695V13.9287ZM26.502 12.2881V10.5928C26.502 10.3102 26.5133 9.90007 26.5361 9.3623C26.5589 8.82454 26.5771 8.51237 26.5908 8.42578H26.5361C26.3675 8.79948 26.1647 9.16406 25.9277 9.51953L24.0957 12.2881H26.502ZM36.7783 16H34.666V10.2168L34.6865 9.2666L34.7207 8.22754C34.3698 8.57845 34.126 8.80859 33.9893 8.91797L32.8408 9.84082L31.8223 8.56934L35.042 6.00586H36.7783V16Z" fill="white"/>
<rect opacity="0.35" x="321.833" y="7.5" width="21" height="10.3333" rx="2.16667" stroke="white"/>
<path opacity="0.4" d="M344.333 10.6667V14.6667C345.138 14.3279 345.661 13.5398 345.661 12.6667C345.661 11.7936 345.138 11.0055 344.333 10.6667Z" fill="white"/>
<rect x="323.333" y="9" width="18" height="7.33333" rx="1.33333" fill="white"/>
<path fill-rule="evenodd" clip-rule="evenodd" d="M308.667 9.28448C310.892 9.28457 313.031 10.1387 314.644 11.6703C314.765 11.7885 314.959 11.787 315.079 11.6669L316.239 10.4966C316.3 10.4357 316.334 10.3532 316.333 10.2673C316.333 10.1815 316.298 10.0994 316.237 10.0392C312.005 5.98694 305.329 5.98694 301.097 10.0392C301.035 10.0993 301.001 10.1814 301 10.2673C300.999 10.3531 301.033 10.4356 301.094 10.4966L302.255 11.6669C302.374 11.7872 302.568 11.7887 302.69 11.6703C304.302 10.1386 306.442 9.28447 308.667 9.28448ZM308.667 13.0921C309.889 13.092 311.068 13.5459 311.974 14.3657C312.097 14.4821 312.29 14.4795 312.409 14.36L313.569 13.1897C313.63 13.1283 313.663 13.045 313.663 12.9585C313.662 12.872 313.626 12.7894 313.564 12.7293C310.805 10.1648 306.532 10.1648 303.773 12.7293C303.71 12.7894 303.675 12.872 303.674 12.9586C303.673 13.0451 303.707 13.1284 303.768 13.1897L304.927 14.36C305.047 14.4795 305.24 14.4821 305.362 14.3657C306.268 13.5465 307.446 13.0926 308.667 13.0921ZM310.989 15.6539C310.991 15.7407 310.957 15.8243 310.895 15.8851L308.89 17.9071C308.831 17.9666 308.751 18 308.667 18C308.583 18 308.503 17.9666 308.445 17.9071L306.439 15.8851C306.377 15.8243 306.343 15.7406 306.345 15.6538C306.347 15.567 306.384 15.4849 306.449 15.4267C307.729 14.3444 309.605 14.3444 310.886 15.4267C310.95 15.4849 310.988 15.5671 310.989 15.6539Z" fill="white"/>
<path fill-rule="evenodd" clip-rule="evenodd" d="M295 7H294C293.448 7 293 7.44772 293 8V16.6667C293 17.219 293.448 17.6667 294 17.6667H295C295.552 17.6667 296 17.219 296 16.6667V8C296 7.44772 295.552 7 295 7ZM289.333 9.33333H290.333C290.886 9.33333 291.333 9.78105 291.333 10.3333V16.6667C291.333 17.219 290.886 17.6667 290.333 17.6667H289.333C288.781 17.6667 288.333 17.219 288.333 16.6667V10.3333C288.333 9.78105 288.781 9.33333 289.333 9.33333ZM285.667 11.6667H284.667C284.114 11.6667 283.667 12.1144 283.667 12.6667V16.6667C283.667 17.219 284.114 17.6667 284.667 17.6667H285.667C286.219 17.6667 286.667 17.219 286.667 16.6667V12.6667C286.667 12.1144 286.219 11.6667 285.667 11.6667ZM281 13.6667H280C279.448 13.6667 279 14.1144 279 14.6667V16.6667C279 17.219 279.448 17.6667 280 17.6667H281C281.552 17.6667 282 17.219 282 16.6667V14.6667C282 14.1144 281.552 13.6667 281 13.6667Z" fill="white"/>
<path d="M54.688 56.192C53.5467 56.192 52.512 55.9467 51.584 55.456C50.6667 54.9547 49.9413 54.2667 49.408 53.392C48.8853 52.5067 48.624 51.5093 48.624 50.4C48.624 49.2907 48.8853 48.2987 49.408 47.424C49.9413 46.5387 50.6667 45.8507 51.584 45.36C52.512 44.8587 53.552 44.608 54.704 44.608C55.6747 44.608 56.5493 44.7787 57.328 45.12C58.1173 45.4613 58.7787 45.952 59.312 46.592L57.648 48.128C56.8907 47.2533 55.952 46.816 54.832 46.816C54.1387 46.816 53.52 46.9707 52.976 47.28C52.432 47.5787 52.0053 48 51.696 48.544C51.3973 49.088 51.248 49.7067 51.248 50.4C51.248 51.0933 51.3973 51.712 51.696 52.256C52.0053 52.8 52.432 53.2267 52.976 53.536C53.52 53.8347 54.1387 53.984 54.832 53.984C55.952 53.984 56.8907 53.5413 57.648 52.656L59.312 54.192C58.7787 54.8427 58.1173 55.3387 57.328 55.68C56.5387 56.0213 55.6587 56.192 54.688 56.192ZM63.2704 48.528C63.569 48.112 63.969 47.7973 64.4704 47.584C64.9824 47.3707 65.569 47.264 66.2304 47.264V49.568C65.953 49.5467 65.7664 49.536 65.6704 49.536C64.9557 49.536 64.3957 49.7387 63.9904 50.144C63.585 50.5387 63.3824 51.136 63.3824 51.936V56H60.8864V47.392H63.2704V48.528ZM76.0684 51.728C76.0684 51.76 76.0524 51.984 76.0204 52.4H69.5084C69.6257 52.9333 69.903 53.3547 70.3404 53.664C70.7777 53.9733 71.3217 54.128 71.9724 54.128C72.4204 54.128 72.815 54.064 73.1564 53.936C73.5084 53.7973 73.8337 53.584 74.1324 53.296L75.4604 54.736C74.6497 55.664 73.4657 56.128 71.9084 56.128C70.9377 56.128 70.079 55.9413 69.3324 55.568C68.5857 55.184 68.0097 54.656 67.6044 53.984C67.199 53.312 66.9964 52.5493 66.9964 51.696C66.9964 50.8533 67.1937 50.096 67.5884 49.424C67.9937 48.7413 68.543 48.2133 69.2364 47.84C69.9404 47.456 70.7244 47.264 71.5884 47.264C72.431 47.264 73.1937 47.4453 73.8764 47.808C74.559 48.1707 75.0924 48.6933 75.4764 49.376C75.871 50.048 76.0684 50.832 76.0684 51.728ZM71.6044 49.152C71.039 49.152 70.5644 49.312 70.1804 49.632C69.7964 49.952 69.5617 50.3893 69.4764 50.944H73.7164C73.631 50.4 73.3964 49.968 73.0124 49.648C72.6284 49.3173 72.159 49.152 71.6044 49.152ZM80.9678 47.264C82.3011 47.264 83.3251 47.584 84.0398 48.224C84.7544 48.8533 85.1118 49.808 85.1118 51.088V56H82.7758V54.928C82.3064 55.728 81.4318 56.128 80.1518 56.128C79.4904 56.128 78.9144 56.016 78.4238 55.792C77.9438 55.568 77.5758 55.2587 77.3198 54.864C77.0638 54.4693 76.9358 54.0213 76.9358 53.52C76.9358 52.72 77.2344 52.0907 77.8318 51.632C78.4398 51.1733 79.3731 50.944 80.6318 50.944H82.6158C82.6158 50.4 82.4504 49.984 82.1198 49.696C81.7891 49.3973 81.2931 49.248 80.6318 49.248C80.1731 49.248 79.7198 49.3227 79.2718 49.472C78.8344 49.6107 78.4611 49.8027 78.1518 50.048L77.2558 48.304C77.7251 47.9733 78.2851 47.7173 78.9358 47.536C79.5971 47.3547 80.2744 47.264 80.9678 47.264ZM80.7758 54.448C81.2024 54.448 81.5811 54.352 81.9118 54.16C82.2424 53.9573 82.4771 53.664 82.6158 53.28V52.4H80.9038C79.8798 52.4 79.3678 52.736 79.3678 53.408C79.3678 53.728 79.4904 53.984 79.7358 54.176C79.9918 54.3573 80.3384 54.448 80.7758 54.448ZM92.9228 55.584C92.6774 55.7653 92.3734 55.904 92.0108 56C91.6588 56.0853 91.2854 56.128 90.8908 56.128C89.8668 56.128 89.0721 55.8667 88.5068 55.344C87.9521 54.8213 87.6748 54.0533 87.6748 53.04V49.504H86.3468V47.584H87.6748V45.488H90.1708V47.584H92.3148V49.504H90.1708V53.008C90.1708 53.3707 90.2614 53.6533 90.4427 53.856C90.6348 54.048 90.9014 54.144 91.2428 54.144C91.6374 54.144 91.9734 54.0373 92.2508 53.824L92.9228 55.584ZM102.49 51.728C102.49 51.76 102.474 51.984 102.442 52.4H95.9303C96.0476 52.9333 96.3249 53.3547 96.7623 53.664C97.1996 53.9733 97.7436 54.128 98.3943 54.128C98.8423 54.128 99.2369 54.064 99.5783 53.936C99.9303 53.7973 100.256 53.584 100.554 53.296L101.882 54.736C101.072 55.664 99.8876 56.128 98.3303 56.128C97.3596 56.128 96.5009 55.9413 95.7543 55.568C95.0076 55.184 94.4316 54.656 94.0263 53.984C93.6209 53.312 93.4183 52.5493 93.4183 51.696C93.4183 50.8533 93.6156 50.096 94.0103 49.424C94.4156 48.7413 94.9649 48.2133 95.6583 47.84C96.3623 47.456 97.1463 47.264 98.0103 47.264C98.8529 47.264 99.6156 47.4453 100.298 47.808C100.981 48.1707 101.514 48.6933 101.898 49.376C102.293 50.048 102.49 50.832 102.49 51.728ZM98.0263 49.152C97.4609 49.152 96.9863 49.312 96.6023 49.632C96.2183 49.952 95.9836 50.3893 95.8983 50.944H100.138C100.053 50.4 99.8183 49.968 99.4343 49.648C99.0503 49.3173 98.5809 49.152 98.0263 49.152ZM112.155 47.264C113.489 47.264 114.513 47.584 115.227 48.224C115.942 48.8533 116.299 49.808 116.299 51.088V56H113.963V54.928C113.494 55.728 112.619 56.128 111.339 56.128C110.678 56.128 110.102 56.016 109.611 55.792C109.131 55.568 108.763 55.2587 108.507 54.864C108.251 54.4693 108.123 54.0213 108.123 53.52C108.123 52.72 108.422 52.0907 109.019 51.632C109.627 51.1733 110.561 50.944 111.819 50.944H113.803C113.803 50.4 113.638 49.984 113.307 49.696C112.977 49.3973 112.481 49.248 111.819 49.248C111.361 49.248 110.907 49.3227 110.459 49.472C110.022 49.6107 109.649 49.8027 109.339 50.048L108.443 48.304C108.913 47.9733 109.473 47.7173 110.123 47.536C110.785 47.3547 111.462 47.264 112.155 47.264ZM111.963 54.448C112.39 54.448 112.769 54.352 113.099 54.16C113.43 53.9573 113.665 53.664 113.803 53.28V52.4H112.091C111.067 52.4 110.555 52.736 110.555 53.408C110.555 53.728 110.678 53.984 110.923 54.176C111.179 54.3573 111.526 54.448 111.963 54.448ZM133.538 44.8V56H131.41L125.826 49.2V56H123.266V44.8H125.41L130.977 51.6V44.8H133.538ZM144.443 51.728C144.443 51.76 144.427 51.984 144.395 52.4H137.883C138.001 52.9333 138.278 53.3547 138.715 53.664C139.153 53.9733 139.697 54.128 140.347 54.128C140.795 54.128 141.19 54.064 141.531 53.936C141.883 53.7973 142.209 53.584 142.507 53.296L143.835 54.736C143.025 55.664 141.841 56.128 140.283 56.128C139.313 56.128 138.454 55.9413 137.707 55.568C136.961 55.184 136.385 54.656 135.979 53.984C135.574 53.312 135.371 52.5493 135.371 51.696C135.371 50.8533 135.569 50.096 135.963 49.424C136.369 48.7413 136.918 48.2133 137.611 47.84C138.315 47.456 139.099 47.264 139.963 47.264C140.806 47.264 141.569 47.4453 142.251 47.808C142.934 48.1707 143.467 48.6933 143.851 49.376C144.246 50.048 144.443 50.832 144.443 51.728ZM139.979 49.152C139.414 49.152 138.939 49.312 138.555 49.632C138.171 49.952 137.937 50.3893 137.851 50.944H142.091C142.006 50.4 141.771 49.968 141.387 49.648C141.003 49.3173 140.534 49.152 139.979 49.152ZM159.773 47.392L156.653 56H154.253L152.317 50.656L150.317 56H147.917L144.813 47.392H147.165L149.197 53.216L151.309 47.392H153.421L155.469 53.216L157.565 47.392H159.773ZM174.312 53.92V56H165.641V44.8H174.105V46.88H168.217V49.312H173.417V51.328H168.217V53.92H174.312ZM184.665 47.392L181.033 56H178.457L174.841 47.392H177.417L179.801 53.248L182.265 47.392H184.665ZM193.881 51.728C193.881 51.76 193.865 51.984 193.833 52.4H187.321C187.438 52.9333 187.716 53.3547 188.153 53.664C188.59 53.9733 189.134 54.128 189.785 54.128C190.233 54.128 190.628 54.064 190.969 53.936C191.321 53.7973 191.646 53.584 191.945 53.296L193.273 54.736C192.462 55.664 191.278 56.128 189.721 56.128C188.75 56.128 187.892 55.9413 187.145 55.568C186.398 55.184 185.822 54.656 185.417 53.984C185.012 53.312 184.809 52.5493 184.809 51.696C184.809 50.8533 185.006 50.096 185.401 49.424C185.806 48.7413 186.356 48.2133 187.049 47.84C187.753 47.456 188.537 47.264 189.401 47.264C190.244 47.264 191.006 47.4453 191.689 47.808C192.372 48.1707 192.905 48.6933 193.289 49.376C193.684 50.048 193.881 50.832 193.881 51.728ZM189.417 49.152C188.852 49.152 188.377 49.312 187.993 49.632C187.609 49.952 187.374 50.3893 187.289 50.944H191.529C191.444 50.4 191.209 49.968 190.825 49.648C190.441 49.3173 189.972 49.152 189.417 49.152ZM200.775 47.264C201.841 47.264 202.7 47.584 203.351 48.224C204.012 48.864 204.343 49.8133 204.343 51.072V56H201.847V51.456C201.847 50.7733 201.697 50.2667 201.399 49.936C201.1 49.5947 200.668 49.424 200.103 49.424C199.473 49.424 198.972 49.6213 198.599 50.016C198.225 50.4 198.039 50.976 198.039 51.744V56H195.543V47.392H197.927V48.4C198.257 48.0373 198.668 47.76 199.159 47.568C199.649 47.3653 200.188 47.264 200.775 47.264ZM212.157 55.584C211.912 55.7653 211.608 55.904 211.245 56C210.893 56.0853 210.52 56.128 210.125 56.128C209.101 56.128 208.306 55.8667 207.741 55.344C207.186 54.8213 206.909 54.0533 206.909 53.04V49.504H205.581V47.584H206.909V45.488H209.405V47.584H211.549V49.504H209.405V53.008C209.405 53.3707 209.496 53.6533 209.677 53.856C209.869 54.048 210.136 54.144 210.477 54.144C210.872 54.144 211.208 54.0373 211.485 53.824L212.157 55.584Z" fill="white"/>
<path d="M34.75 50C34.75 50.3682 34.4515 50.6667 34.0833 50.6667L23.4463 50.6667L27.148 54.6185C27.3802 54.8664 27.38 55.252 27.1476 55.4997C26.8932 55.7707 26.4629 55.7709 26.2084 55.5L21.396 50.3778C21.2013 50.1704 21.2013 49.837 21.396 49.6296L26.2085 44.5005C26.4629 44.2294 26.8934 44.2294 27.1477 44.5005C27.3801 44.7481 27.3802 45.1335 27.1481 45.3813L23.4463 49.3333L34.0833 49.3333C34.4515 49.3333 34.75 49.6318 34.75 50Z" fill="white"/>
<rect x="16" y="78" width="328" height="3" fill="#474747"/>
<rect x="16" y="78" width="164" height="3" fill="#76A9FF"/>
<path d="M17.162 233.2H21.614C22.678 233.2 23.616 233.405 24.428 233.816C25.2493 234.217 25.884 234.787 26.332 235.524C26.7893 236.261 27.018 237.12 27.018 238.1C27.018 239.08 26.7893 239.939 26.332 240.676C25.884 241.413 25.2493 241.987 24.428 242.398C23.616 242.799 22.678 243 21.614 243H17.162V233.2ZM21.502 241.138C22.482 241.138 23.2613 240.867 23.84 240.326C24.428 239.775 24.722 239.033 24.722 238.1C24.722 237.167 24.428 236.429 23.84 235.888C23.2613 235.337 22.482 235.062 21.502 235.062H19.43V241.138H21.502ZM32.1584 243.112C31.3651 243.112 30.6511 242.949 30.0164 242.622C29.3911 242.286 28.9011 241.824 28.5464 241.236C28.1917 240.648 28.0144 239.981 28.0144 239.234C28.0144 238.487 28.1917 237.82 28.5464 237.232C28.9011 236.644 29.3911 236.187 30.0164 235.86C30.6511 235.524 31.3651 235.356 32.1584 235.356C32.9517 235.356 33.6611 235.524 34.2864 235.86C34.9117 236.187 35.4017 236.644 35.7564 237.232C36.1111 237.82 36.2884 238.487 36.2884 239.234C36.2884 239.981 36.1111 240.648 35.7564 241.236C35.4017 241.824 34.9117 242.286 34.2864 242.622C33.6611 242.949 32.9517 243.112 32.1584 243.112ZM32.1584 241.32C32.7184 241.32 33.1757 241.133 33.5304 240.76C33.8944 240.377 34.0764 239.869 34.0764 239.234C34.0764 238.599 33.8944 238.095 33.5304 237.722C33.1757 237.339 32.7184 237.148 32.1584 237.148C31.5984 237.148 31.1364 237.339 30.7724 237.722C30.4084 238.095 30.2264 238.599 30.2264 239.234C30.2264 239.869 30.4084 240.377 30.7724 240.76C31.1364 241.133 31.5984 241.32 32.1584 241.32ZM49.1891 235.468L45.7871 243.462C45.4417 244.33 45.0124 244.941 44.4991 245.296C43.9951 245.651 43.3837 245.828 42.6651 245.828C42.2731 245.828 41.8857 245.767 41.5031 245.646C41.1204 245.525 40.8077 245.357 40.5651 245.142L41.3631 243.588C41.5311 243.737 41.7224 243.854 41.9371 243.938C42.1611 244.022 42.3804 244.064 42.5951 244.064C42.8937 244.064 43.1364 243.989 43.3231 243.84C43.5097 243.7 43.6777 243.462 43.8271 243.126L43.8551 243.056L40.5931 235.468H42.8471L44.9611 240.578L47.0891 235.468H49.1891ZM53.4592 243.112C52.6659 243.112 51.9519 242.949 51.3172 242.622C50.6919 242.286 50.2019 241.824 49.8472 241.236C49.4925 240.648 49.3152 239.981 49.3152 239.234C49.3152 238.487 49.4925 237.82 49.8472 237.232C50.2019 236.644 50.6919 236.187 51.3172 235.86C51.9519 235.524 52.6659 235.356 53.4592 235.356C54.2525 235.356 54.9619 235.524 55.5872 235.86C56.2125 236.187 56.7025 236.644 57.0572 237.232C57.4119 237.82 57.5892 238.487 57.5892 239.234C57.5892 239.981 57.4119 240.648 57.0572 241.236C56.7025 241.824 56.2125 242.286 55.5872 242.622C54.9619 242.949 54.2525 243.112 53.4592 243.112ZM53.4592 241.32C54.0192 241.32 54.4765 241.133 54.8312 240.76C55.1952 240.377 55.3772 239.869 55.3772 239.234C55.3772 238.599 55.1952 238.095 54.8312 237.722C54.4765 237.339 54.0192 237.148 53.4592 237.148C52.8992 237.148 52.4372 237.339 52.0732 237.722C51.7092 238.095 51.5272 238.599 51.5272 239.234C51.5272 239.869 51.7092 240.377 52.0732 240.76C52.4372 241.133 52.8992 241.32 53.4592 241.32ZM66.637 235.468V243H64.565V242.104C64.2757 242.431 63.9303 242.683 63.529 242.86C63.1277 243.028 62.6937 243.112 62.227 243.112C61.2377 243.112 60.4537 242.827 59.875 242.258C59.2963 241.689 59.007 240.844 59.007 239.724V235.468H61.191V239.402C61.191 240.615 61.6997 241.222 62.717 241.222C63.2397 241.222 63.6597 241.054 63.977 240.718C64.2943 240.373 64.453 239.864 64.453 239.192V235.468H66.637ZM84.7212 235.468L81.9912 243H79.8912L78.1972 238.324L76.4472 243H74.3472L71.6312 235.468H73.6892L75.4672 240.564L77.3152 235.468H79.1632L80.9552 240.564L82.7892 235.468H84.7212ZM88.5284 235.356C89.6951 235.356 90.5911 235.636 91.2164 236.196C91.8418 236.747 92.1544 237.582 92.1544 238.702V243H90.1104V242.062C89.6998 242.762 88.9344 243.112 87.8144 243.112C87.2358 243.112 86.7318 243.014 86.3024 242.818C85.8824 242.622 85.5604 242.351 85.3364 242.006C85.1124 241.661 85.0004 241.269 85.0004 240.83C85.0004 240.13 85.2618 239.579 85.7844 239.178C86.3164 238.777 87.1331 238.576 88.2344 238.576H89.9704C89.9704 238.1 89.8258 237.736 89.5364 237.484C89.2471 237.223 88.8131 237.092 88.2344 237.092C87.8331 237.092 87.4364 237.157 87.0444 237.288C86.6618 237.409 86.3351 237.577 86.0644 237.792L85.2804 236.266C85.6911 235.977 86.1811 235.753 86.7504 235.594C87.3291 235.435 87.9218 235.356 88.5284 235.356ZM88.3604 241.642C88.7338 241.642 89.0651 241.558 89.3544 241.39C89.6438 241.213 89.8491 240.956 89.9704 240.62V239.85H88.4724C87.5764 239.85 87.1284 240.144 87.1284 240.732C87.1284 241.012 87.2358 241.236 87.4504 241.404C87.6744 241.563 87.9778 241.642 88.3604 241.642ZM98.709 235.356C99.6424 235.356 100.394 235.636 100.963 236.196C101.542 236.756 101.831 237.587 101.831 238.688V243H99.647V239.024C99.647 238.427 99.5164 237.983 99.255 237.694C98.9937 237.395 98.6157 237.246 98.121 237.246C97.5704 237.246 97.1317 237.419 96.805 237.764C96.4784 238.1 96.315 238.604 96.315 239.276V243H94.131V235.468H96.217V236.35C96.5064 236.033 96.8657 235.79 97.295 235.622C97.7244 235.445 98.1957 235.356 98.709 235.356ZM108.669 242.636C108.454 242.795 108.188 242.916 107.871 243C107.563 243.075 107.236 243.112 106.891 243.112C105.995 243.112 105.299 242.883 104.805 242.426C104.319 241.969 104.077 241.297 104.077 240.41V237.316H102.915V235.636H104.077V233.802H106.261V235.636H108.137V237.316H106.261V240.382C106.261 240.699 106.34 240.947 106.499 241.124C106.667 241.292 106.9 241.376 107.199 241.376C107.544 241.376 107.838 241.283 108.081 241.096L108.669 242.636ZM118.718 242.636C118.503 242.795 118.237 242.916 117.92 243C117.612 243.075 117.285 243.112 116.94 243.112C116.044 243.112 115.348 242.883 114.854 242.426C114.368 241.969 114.126 241.297 114.126 240.41V237.316H112.964V235.636H114.126V233.802H116.31V235.636H118.186V237.316H116.31V240.382C116.31 240.699 116.389 240.947 116.548 241.124C116.716 241.292 116.949 241.376 117.248 241.376C117.593 241.376 117.887 241.283 118.13 241.096L118.718 242.636ZM123.295 243.112C122.502 243.112 121.788 242.949 121.153 242.622C120.528 242.286 120.038 241.824 119.683 241.236C119.328 240.648 119.151 239.981 119.151 239.234C119.151 238.487 119.328 237.82 119.683 237.232C120.038 236.644 120.528 236.187 121.153 235.86C121.788 235.524 122.502 235.356 123.295 235.356C124.088 235.356 124.798 235.524 125.423 235.86C126.048 236.187 126.538 236.644 126.893 237.232C127.248 237.82 127.425 238.487 127.425 239.234C127.425 239.981 127.248 240.648 126.893 241.236C126.538 241.824 126.048 242.286 125.423 242.622C124.798 242.949 124.088 243.112 123.295 243.112ZM123.295 241.32C123.855 241.32 124.312 241.133 124.667 240.76C125.031 240.377 125.213 239.869 125.213 239.234C125.213 238.599 125.031 238.095 124.667 237.722C124.312 237.339 123.855 237.148 123.295 237.148C122.735 237.148 122.273 237.339 121.909 237.722C121.545 238.095 121.363 238.599 121.363 239.234C121.363 239.869 121.545 240.377 121.909 240.76C122.273 241.133 122.735 241.32 123.295 241.32ZM135.384 243.112C134.758 243.112 134.147 243.037 133.55 242.888C132.952 242.729 132.476 242.533 132.122 242.3L132.85 240.732C133.186 240.947 133.592 241.124 134.068 241.264C134.544 241.395 135.01 241.46 135.468 241.46C136.392 241.46 136.854 241.231 136.854 240.774C136.854 240.559 136.728 240.405 136.476 240.312C136.224 240.219 135.836 240.139 135.314 240.074C134.698 239.981 134.189 239.873 133.788 239.752C133.386 239.631 133.036 239.416 132.738 239.108C132.448 238.8 132.304 238.361 132.304 237.792C132.304 237.316 132.439 236.896 132.71 236.532C132.99 236.159 133.391 235.869 133.914 235.664C134.446 235.459 135.071 235.356 135.79 235.356C136.322 235.356 136.849 235.417 137.372 235.538C137.904 235.65 138.342 235.809 138.688 236.014L137.96 237.568C137.297 237.195 136.574 237.008 135.79 237.008C135.323 237.008 134.973 237.073 134.74 237.204C134.506 237.335 134.39 237.503 134.39 237.708C134.39 237.941 134.516 238.105 134.768 238.198C135.02 238.291 135.421 238.38 135.972 238.464C136.588 238.567 137.092 238.679 137.484 238.8C137.876 238.912 138.216 239.122 138.506 239.43C138.795 239.738 138.94 240.167 138.94 240.718C138.94 241.185 138.8 241.6 138.52 241.964C138.24 242.328 137.829 242.613 137.288 242.818C136.756 243.014 136.121 243.112 135.384 243.112ZM147.665 239.262C147.665 239.29 147.651 239.486 147.623 239.85H141.925C142.028 240.317 142.271 240.685 142.653 240.956C143.036 241.227 143.512 241.362 144.081 241.362C144.473 241.362 144.819 241.306 145.117 241.194C145.425 241.073 145.71 240.886 145.971 240.634L147.133 241.894C146.424 242.706 145.388 243.112 144.025 243.112C143.176 243.112 142.425 242.949 141.771 242.622C141.118 242.286 140.614 241.824 140.259 241.236C139.905 240.648 139.727 239.981 139.727 239.234C139.727 238.497 139.9 237.834 140.245 237.246C140.6 236.649 141.081 236.187 141.687 235.86C142.303 235.524 142.989 235.356 143.745 235.356C144.483 235.356 145.15 235.515 145.747 235.832C146.345 236.149 146.811 236.607 147.147 237.204C147.493 237.792 147.665 238.478 147.665 239.262ZM143.759 237.008C143.265 237.008 142.849 237.148 142.513 237.428C142.177 237.708 141.972 238.091 141.897 238.576H145.607C145.533 238.1 145.327 237.722 144.991 237.442C144.655 237.153 144.245 237.008 143.759 237.008ZM153.697 235.356C154.631 235.356 155.382 235.636 155.951 236.196C156.53 236.756 156.819 237.587 156.819 238.688V243H154.635V239.024C154.635 238.427 154.505 237.983 154.243 237.694C153.982 237.395 153.604 237.246 153.109 237.246C152.559 237.246 152.12 237.419 151.793 237.764C151.467 238.1 151.303 238.604 151.303 239.276V243H149.119V235.468H151.205V236.35C151.495 236.033 151.854 235.79 152.283 235.622C152.713 235.445 153.184 235.356 153.697 235.356ZM166.553 232.612V243H164.467V242.132C163.926 242.785 163.142 243.112 162.115 243.112C161.406 243.112 160.762 242.953 160.183 242.636C159.614 242.319 159.166 241.866 158.839 241.278C158.512 240.69 158.349 240.009 158.349 239.234C158.349 238.459 158.512 237.778 158.839 237.19C159.166 236.602 159.614 236.149 160.183 235.832C160.762 235.515 161.406 235.356 162.115 235.356C163.076 235.356 163.828 235.659 164.369 236.266V232.612H166.553ZM162.493 241.32C163.044 241.32 163.501 241.133 163.865 240.76C164.229 240.377 164.411 239.869 164.411 239.234C164.411 238.599 164.229 238.095 163.865 237.722C163.501 237.339 163.044 237.148 162.493 237.148C161.933 237.148 161.471 237.339 161.107 237.722C160.743 238.095 160.561 238.599 160.561 239.234C160.561 239.869 160.743 240.377 161.107 240.76C161.471 241.133 161.933 241.32 162.493 241.32ZM179.917 239.262C179.917 239.29 179.903 239.486 179.875 239.85H174.177C174.28 240.317 174.523 240.685 174.905 240.956C175.288 241.227 175.764 241.362 176.333 241.362C176.725 241.362 177.071 241.306 177.369 241.194C177.677 241.073 177.962 240.886 178.223 240.634L179.385 241.894C178.676 242.706 177.64 243.112 176.277 243.112C175.428 243.112 174.677 242.949 174.023 242.622C173.37 242.286 172.866 241.824 172.511 241.236C172.157 240.648 171.979 239.981 171.979 239.234C171.979 238.497 172.152 237.834 172.497 237.246C172.852 236.649 173.333 236.187 173.939 235.86C174.555 235.524 175.241 235.356 175.997 235.356C176.735 235.356 177.402 235.515 177.999 235.832C178.597 236.149 179.063 236.607 179.399 237.204C179.745 237.792 179.917 238.478 179.917 239.262ZM176.011 237.008C175.517 237.008 175.101 237.148 174.765 237.428C174.429 237.708 174.224 238.091 174.149 238.576H177.859C177.785 238.1 177.579 237.722 177.243 237.442C176.907 237.153 176.497 237.008 176.011 237.008ZM181.228 238.184H185.19V239.934H181.228V238.184ZM186.908 235.468H189.092V243H186.908V235.468ZM188 234.418C187.599 234.418 187.272 234.301 187.02 234.068C186.768 233.835 186.642 233.545 186.642 233.2C186.642 232.855 186.768 232.565 187.02 232.332C187.272 232.099 187.599 231.982 188 231.982C188.402 231.982 188.728 232.094 188.98 232.318C189.232 232.542 189.358 232.822 189.358 233.158C189.358 233.522 189.232 233.825 188.98 234.068C188.728 234.301 188.402 234.418 188 234.418ZM195.697 235.356C196.631 235.356 197.382 235.636 197.951 236.196C198.53 236.756 198.819 237.587 198.819 238.688V243H196.635V239.024C196.635 238.427 196.505 237.983 196.243 237.694C195.982 237.395 195.604 237.246 195.109 237.246C194.559 237.246 194.12 237.419 193.793 237.764C193.467 238.1 193.303 238.604 193.303 239.276V243H191.119V235.468H193.205V236.35C193.495 236.033 193.854 235.79 194.283 235.622C194.713 235.445 195.184 235.356 195.697 235.356ZM208.138 235.468L204.96 243H202.706L199.542 235.468H201.796L203.882 240.592L206.038 235.468H208.138ZM209.029 235.468H211.213V243H209.029V235.468ZM210.121 234.418C209.72 234.418 209.393 234.301 209.141 234.068C208.889 233.835 208.763 233.545 208.763 233.2C208.763 232.855 208.889 232.565 209.141 232.332C209.393 232.099 209.72 231.982 210.121 231.982C210.523 231.982 210.849 232.094 211.101 232.318C211.353 232.542 211.479 232.822 211.479 233.158C211.479 233.522 211.353 233.825 211.101 234.068C210.849 234.301 210.523 234.418 210.121 234.418ZM218.098 242.636C217.884 242.795 217.618 242.916 217.3 243C216.992 243.075 216.666 243.112 216.32 243.112C215.424 243.112 214.729 242.883 214.234 242.426C213.749 241.969 213.506 241.297 213.506 240.41V237.316H212.344V235.636H213.506V233.802H215.69V235.636H217.566V237.316H215.69V240.382C215.69 240.699 215.77 240.947 215.928 241.124C216.096 241.292 216.33 241.376 216.628 241.376C216.974 241.376 217.268 241.283 217.51 241.096L218.098 242.636ZM226.47 239.262C226.47 239.29 226.456 239.486 226.428 239.85H220.73C220.833 240.317 221.075 240.685 221.458 240.956C221.841 241.227 222.317 241.362 222.886 241.362C223.278 241.362 223.623 241.306 223.922 241.194C224.23 241.073 224.515 240.886 224.776 240.634L225.938 241.894C225.229 242.706 224.193 243.112 222.83 243.112C221.981 243.112 221.229 242.949 220.576 242.622C219.923 242.286 219.419 241.824 219.064 241.236C218.709 240.648 218.532 239.981 218.532 239.234C218.532 238.497 218.705 237.834 219.05 237.246C219.405 236.649 219.885 236.187 220.492 235.86C221.108 235.524 221.794 235.356 222.55 235.356C223.287 235.356 223.955 235.515 224.552 235.832C225.149 236.149 225.616 236.607 225.952 237.204C226.297 237.792 226.47 238.478 226.47 239.262ZM222.564 237.008C222.069 237.008 221.654 237.148 221.318 237.428C220.982 237.708 220.777 238.091 220.702 238.576H224.412C224.337 238.1 224.132 237.722 223.796 237.442C223.46 237.153 223.049 237.008 222.564 237.008ZM229.339 239.598C229.339 239.113 229.446 238.711 229.661 238.394C229.885 238.077 230.207 237.727 230.627 237.344C230.935 237.064 231.159 236.831 231.299 236.644C231.448 236.448 231.523 236.229 231.523 235.986C231.523 235.641 231.383 235.37 231.103 235.174C230.832 234.969 230.468 234.866 230.011 234.866C229.572 234.866 229.18 234.959 228.835 235.146C228.499 235.323 228.214 235.575 227.981 235.902L226.287 234.908C226.679 234.311 227.206 233.849 227.869 233.522C228.541 233.195 229.334 233.032 230.249 233.032C231.322 233.032 232.181 233.261 232.825 233.718C233.478 234.175 233.805 234.81 233.805 235.622C233.805 236.005 233.739 236.341 233.609 236.63C233.487 236.919 233.333 237.167 233.147 237.372C232.969 237.568 232.736 237.797 232.447 238.058C232.101 238.366 231.849 238.627 231.691 238.842C231.532 239.047 231.453 239.299 231.453 239.598H229.339ZM230.403 243.112C230.02 243.112 229.698 242.991 229.437 242.748C229.185 242.496 229.059 242.193 229.059 241.838C229.059 241.483 229.185 241.189 229.437 240.956C229.689 240.713 230.011 240.592 230.403 240.592C230.795 240.592 231.117 240.713 231.369 240.956C231.621 241.189 231.747 241.483 231.747 241.838C231.747 242.193 231.616 242.496 231.355 242.748C231.103 242.991 230.785 243.112 230.403 243.112Z" fill="white"/>
<rect x="16" y="576" width="328" height="40" rx="6" fill="#090909"/>
<g opacity="0.5">
<rect x="16" y="576" width="328" height="40" rx="6" fill="#76A9FF"/>
<path d="M171.236 591.2V601H169.374L164.488 595.05V601H162.248V591.2H164.124L168.996 597.15V591.2H171.236ZM181.143 599.18V601H173.555V591.2H180.961V593.02H175.809V595.148H180.359V596.912H175.809V599.18H181.143ZM189.025 601L186.659 597.598L184.335 601H181.731L185.357 596.016L181.913 591.2H184.489L186.743 594.378L188.955 591.2H191.405L187.989 595.932L191.643 601H189.025ZM194.452 593.048H191.316V591.2H199.856V593.048H196.72V601H194.452V593.048Z" fill="white"/>
</g>
<rect x="16" y="262" width="328" height="40" rx="8" fill="#1C1C1C"/>
<rect x="16" y="318" width="328" height="40" rx="8" fill="#1C1C1C"/>
<path d="M36.9178 284.528V288H34.6498V284.5L30.8558 278.2H33.2638L35.8818 282.554L38.4998 278.2H40.7258L36.9178 284.528ZM48.0647 284.262C48.0647 284.29 48.0507 284.486 48.0227 284.85H42.3247C42.4274 285.317 42.67 285.685 43.0527 285.956C43.4354 286.227 43.9114 286.362 44.4807 286.362C44.8727 286.362 45.218 286.306 45.5167 286.194C45.8247 286.073 46.1094 285.886 46.3707 285.634L47.5327 286.894C46.8234 287.706 45.7874 288.112 44.4247 288.112C43.5754 288.112 42.824 287.949 42.1707 287.622C41.5174 287.286 41.0134 286.824 40.6587 286.236C40.304 285.648 40.1267 284.981 40.1267 284.234C40.1267 283.497 40.2994 282.834 40.6447 282.246C40.9994 281.649 41.48 281.187 42.0867 280.86C42.7027 280.524 43.3887 280.356 44.1447 280.356C44.882 280.356 45.5494 280.515 46.1467 280.832C46.744 281.149 47.2107 281.607 47.5467 282.204C47.892 282.792 48.0647 283.478 48.0647 284.262ZM44.1587 282.008C43.664 282.008 43.2487 282.148 42.9127 282.428C42.5767 282.708 42.3714 283.091 42.2967 283.576H46.0067C45.932 283.1 45.7267 282.722 45.3907 282.442C45.0547 282.153 44.644 282.008 44.1587 282.008ZM52.0527 288.112C51.4274 288.112 50.8161 288.037 50.2187 287.888C49.6214 287.729 49.1454 287.533 48.7907 287.3L49.5187 285.732C49.8547 285.947 50.2607 286.124 50.7367 286.264C51.2127 286.395 51.6794 286.46 52.1367 286.46C53.0607 286.46 53.5227 286.231 53.5227 285.774C53.5227 285.559 53.3967 285.405 53.1447 285.312C52.8927 285.219 52.5054 285.139 51.9827 285.074C51.3667 284.981 50.8581 284.873 50.4567 284.752C50.0554 284.631 49.7054 284.416 49.4067 284.108C49.1174 283.8 48.9727 283.361 48.9727 282.792C48.9727 282.316 49.1081 281.896 49.3787 281.532C49.6587 281.159 50.0601 280.869 50.5827 280.664C51.1147 280.459 51.7401 280.356 52.4587 280.356C52.9907 280.356 53.5181 280.417 54.0407 280.538C54.5727 280.65 55.0114 280.809 55.3567 281.014L54.6287 282.568C53.9661 282.195 53.2427 282.008 52.4587 282.008C51.9921 282.008 51.6421 282.073 51.4087 282.204C51.1754 282.335 51.0587 282.503 51.0587 282.708C51.0587 282.941 51.1847 283.105 51.4367 283.198C51.6887 283.291 52.0901 283.38 52.6407 283.464C53.2567 283.567 53.7607 283.679 54.1527 283.8C54.5447 283.912 54.8854 284.122 55.1747 284.43C55.4641 284.738 55.6087 285.167 55.6087 285.718C55.6087 286.185 55.4687 286.6 55.1887 286.964C54.9087 287.328 54.4981 287.613 53.9567 287.818C53.4247 288.014 52.7901 288.112 52.0527 288.112Z" fill="white"/>
<path d="M41.15 334.2V344H39.288L34.402 338.05V344H32.162V334.2H34.038L38.91 340.15V334.2H41.15ZM46.8986 344.112C46.1053 344.112 45.3913 343.949 44.7566 343.622C44.1313 343.286 43.6413 342.824 43.2866 342.236C42.932 341.648 42.7546 340.981 42.7546 340.234C42.7546 339.487 42.932 338.82 43.2866 338.232C43.6413 337.644 44.1313 337.187 44.7566 336.86C45.3913 336.524 46.1053 336.356 46.8986 336.356C47.692 336.356 48.4013 336.524 49.0266 336.86C49.652 337.187 50.142 337.644 50.4966 338.232C50.8513 338.82 51.0286 339.487 51.0286 340.234C51.0286 340.981 50.8513 341.648 50.4966 342.236C50.142 342.824 49.652 343.286 49.0266 343.622C48.4013 343.949 47.692 344.112 46.8986 344.112ZM46.8986 342.32C47.4586 342.32 47.916 342.133 48.2706 341.76C48.6346 341.377 48.8166 340.869 48.8166 340.234C48.8166 339.599 48.6346 339.095 48.2706 338.722C47.916 338.339 47.4586 338.148 46.8986 338.148C46.3386 338.148 45.8766 338.339 45.5126 338.722C45.1486 339.095 44.9666 339.599 44.9666 340.234C44.9666 340.869 45.1486 341.377 45.5126 341.76C45.8766 342.133 46.3386 342.32 46.8986 342.32Z" fill="white"/>
<g clip-path="url(#clip0_1_178)">
<path d="M136 143.261L173.395 107.722C177.213 104.088 183.217 104.088 187.035 107.722L224.43 143.261V190.179H136V143.261Z" fill="#EA5D5A"/>
<path d="M224.422 205V143.261L178.532 175.357L224.422 205Z" fill="white"/>
<path d="M224.422 205V143.261L182.941 175.357L224.422 205Z" fill="#FF9A98"/>
<path d="M136 205V143.261L180.633 175.357L136 205Z" fill="white"/>
<path d="M136 205V143.261L177.489 175.357L136 205Z" fill="#FF9A98"/>
<path d="M136 205L176.63 162.345C178.578 160.298 181.844 160.298 183.792 162.345L224.422 205H136Z" fill="white"/>
<path d="M136 205L175.633 167.337C178.202 164.899 182.228 164.899 184.796 167.337L224.43 205.008H136V205Z" fill="#FFC5C4"/>
<path d="M195.385 126.014C184.681 121.383 180.633 134.118 180.633 134.118C180.633 134.118 176.584 121.39 165.88 126.014C155.169 130.637 172.82 153.494 180.633 155.81C188.446 153.494 206.097 130.637 195.385 126.014Z" fill="white"/>
</g>
<defs>
<clipPath id="clip0_1_178">
<rect width="88.422" height="100" fill="white" transform="translate(136 105)"/>
</clipPath>
</defs>
</svg>
